<svg xmlns="http://www.w3.org/2000/svg" viewBox="0 0 1039.8125 401.6875"><path d="M220.9 92.6v153.6h-94.5v48.3H57.6V50.6h111.3l52 42zm-68.8 111.9V110h-25.7v94.5h25.7zm170.6 90h-68.8V50.6h68.8v243.9zm33-243.9h69.1v98.3h25.7V50.6h68.8v140.7h-38.9l38.9 38.2v65h-68.8v-74h-25.7v74h-69.1V178.1h38.9l-38.9-38.2V50.6zm359.6 243.9H552V50.6h163.3V110h-94.5v38.9h36.5v42.4h-36.5v43.8h94.5v59.4zm180 0h-147V50.6h68.8v184.5h78.2v59.4z" fill="#fff"/><path stroke-miterlimit="10" fill="none" stroke="#fff" stroke-width="16" d="M178.7 381.7v-59h78.5l52.9 59h76.4v-20.2l23.9 20.2h61v-20.2l23.9 20.2h91.6v-18.2l23.9 18.2h164.6v-18.2l23.9 18.2h220.5v-76.5l-69.2-71.8V104.5L872 20H248.6l-27.3 32.4L182 20H20v295.2l69.8 66.5z"/></svg>