<svg xmlns="http://www.w3.org/2000/svg" viewBox="0 0 1023.8125 385.6875"><path d="M12 12v295.188l69.813 66.5h88.874v-59h78.5l52.907 59H378.5V353.5l23.906 20.188h61V353.5l23.906 20.188h91.594V353.5l23.907 20.188h164.593V355.5l23.907 18.188h220.5v-76.5l-69.22-71.782V96.5L864 12H240.594l-27.281 32.406L174 12zm37.594 30.594h111.312l52 42v153.594h-94.5V286.5H49.594zm196.312 0h68.781V286.5h-68.78zm101.781 0h69.125v98.312H442.5V42.594h68.813v140.719h-38.907l38.906 38.187v65H442.5v-74h-25.688v74h-69.125V170.094h38.907l-38.906-38.188zm196.313 0h163.313V102h-94.5v38.906h36.5v42.406h-36.5v43.782h94.5V286.5H544zm196.313 0h68.78v184.5h78.22V286.5h-147zM118.405 102v94.5h25.688V102z"/></svg>