<svg xmlns="http://www.w3.org/2000/svg" viewBox="0 0 1023.8125 385.6875"><path d="M12 12v295.2l69.8 66.5h88.9v-59h78.5l52.9 59h76.4v-20.2l24 20.2h61v-20.2l23.8 20.2H579v-20.2l24 20.2h164.5v-18.2l24 18.2h220.4v-76.5l-69.2-71.8V96.5L864 12H240.6l-27.3 32.4L174 12zm37.6 30.6h111.3l52 42v153.6h-94.5v48.3H49.6zm196.3 0h68.8v243.9h-68.8zm101.8 0h69.1v98.3h25.7V42.6h68.8v140.7h-38.9l39 38.2v65h-68.9v-74h-25.7v74h-69.1V170.1h38.9l-39-38.2zm196.3 0h163.3V102h-94.5v39h36.5v42.3h-36.5v43.8h94.5v59.4H544zm196.3 0h68.8V227h78.2v59.4h-147zM118.4 102v94.5h25.7V102z" fill="#fff"/></svg>